<svg xmlns="http://www.w3.org/2000/svg" viewBox="0 0 900 520" font-family="Georgia, 'Times New Roman', serif">
  <defs>
    <marker id="arrow" viewBox="0 0 10 10" refX="9" refY="5" markerWidth="6" markerHeight="6" orient="auto">
      <path d="M0,0 L10,5 L0,10 z" fill="#1a1a1a"/>
    </marker>
    <style>
      .box { fill: #faf6ef; stroke: #1a1a1a; stroke-width: 1.5; }
      .hot { fill: #fff1d6; stroke: #c0392b; stroke-width: 1.5; }
      .enc { fill: #e7edd9; stroke: #1a1a1a; stroke-width: 1; }
      .dec { fill: #d7e3ee; stroke: #1a1a1a; stroke-width: 1; }
      .label { font-size: 14px; font-weight: 600; fill: #1a1a1a; }
      .content { font-size: 12px; fill: #333; font-family: 'Menlo', monospace; }
      .caption { font-size: 11px; fill: #555; font-style: italic; }
      .title { font-size: 16px; font-weight: 700; fill: #1a1a1a; }
    </style>
  </defs>

  <text x="450" y="30" text-anchor="middle" class="title">编码器—解码器：交叉注意力是唯一通道</text>

  <!-- Source input -->
  <rect x="60" y="70" width="260" height="32" class="hot"/>
  <text x="190" y="92" text-anchor="middle" class="content">源词元 (N_src)</text>

  <line x1="190" y1="102" x2="190" y2="125" stroke="#1a1a1a" stroke-width="1.5" marker-end="url(#arrow)"/>

  <!-- Encoder stack -->
  <rect x="60" y="125" width="260" height="170" class="enc"/>
  <text x="190" y="150" text-anchor="middle" class="label">编码器（双向）</text>

  <rect x="90" y="170" width="200" height="30" class="box"/>
  <text x="190" y="190" text-anchor="middle" class="content">模块 1：自注意力 + FFN</text>
  <rect x="90" y="208" width="200" height="30" class="box"/>
  <text x="190" y="228" text-anchor="middle" class="content">模块 2：自注意力 + FFN</text>
  <rect x="90" y="246" width="200" height="30" class="box"/>
  <text x="190" y="266" text-anchor="middle" class="content">模块 L：自注意力 + FFN</text>

  <line x1="190" y1="295" x2="190" y2="320" stroke="#1a1a1a" stroke-width="1.5" marker-end="url(#arrow)"/>
  <rect x="60" y="320" width="260" height="30" class="hot"/>
  <text x="190" y="340" text-anchor="middle" class="content">编码器输出 (N_src, d)</text>

  <!-- Target input -->
  <rect x="580" y="70" width="260" height="32" class="hot"/>
  <text x="710" y="92" text-anchor="middle" class="content">目标词元（右移）</text>

  <line x1="710" y1="102" x2="710" y2="125" stroke="#1a1a1a" stroke-width="1.5" marker-end="url(#arrow)"/>

  <!-- Decoder stack -->
  <rect x="500" y="125" width="340" height="275" class="dec"/>
  <text x="670" y="150" text-anchor="middle" class="label">解码器（因果 + 交叉注意力）</text>

  <rect x="530" y="170" width="280" height="30" class="box"/>
  <text x="670" y="190" text-anchor="middle" class="content">带掩码自注意力</text>

  <rect x="530" y="208" width="280" height="30" class="hot"/>
  <text x="670" y="228" text-anchor="middle" class="content">交叉注意力 ◀── enc_out</text>

  <rect x="530" y="246" width="280" height="30" class="box"/>
  <text x="670" y="266" text-anchor="middle" class="content">前馈网络（FFN）</text>

  <text x="670" y="303" text-anchor="middle" class="caption">（重复 L 次）</text>

  <rect x="530" y="315" width="280" height="30" class="box"/>
  <text x="670" y="335" text-anchor="middle" class="content">线性层 → 词表</text>

  <line x1="670" y1="345" x2="670" y2="368" stroke="#1a1a1a" stroke-width="1.5" marker-end="url(#arrow)"/>
  <rect x="560" y="368" width="220" height="30" class="hot"/>
  <text x="670" y="388" text-anchor="middle" class="content">下一词元逻辑值</text>

  <!-- Cross-attention arrow -->
  <path d="M 320 335 Q 420 335 420 223 Q 420 223 530 223" fill="none" stroke="#c0392b" stroke-width="1.8" marker-end="url(#arrow)"/>
  <text x="420" y="275" text-anchor="middle" class="caption">交叉注意力：</text>
  <text x="420" y="290" text-anchor="middle" class="caption">Q 来自解码器，</text>
  <text x="420" y="305" text-anchor="middle" class="caption">K/V 来自编码器</text>

  <!-- Pretraining insets -->
  <rect x="60" y="430" width="360" height="70" class="box"/>
  <text x="240" y="452" text-anchor="middle" class="label">T5 预训练</text>
  <text x="240" y="474" text-anchor="middle" class="caption">片段破坏：用哨兵替换片段，</text>
  <text x="240" y="490" text-anchor="middle" class="caption">只解码这些片段</text>

  <rect x="480" y="430" width="360" height="70" class="box"/>
  <text x="660" y="452" text-anchor="middle" class="label">BART 预训练</text>
  <text x="660" y="474" text-anchor="middle" class="caption">应用噪声（遮蔽、删除、填充、打乱），</text>
  <text x="660" y="490" text-anchor="middle" class="caption">解码器重建完整干净序列</text>
</svg>
