<svg xmlns="http://www.w3.org/2000/svg" viewBox="0 0 980 560" font-family="Georgia, 'Times New Roman', serif">
  <defs>
    <marker id="arrow" viewBox="0 0 10 10" refX="9" refY="5" markerWidth="7" markerHeight="7" orient="auto">
      <path d="M0,0 L10,5 L0,10 z" fill="#1a1a1a"/>
    </marker>
    <style>
      .box { fill: #faf6ef; stroke: #1a1a1a; stroke-width: 1.5; }
      .cool { fill: #e6f4ea; stroke: #2e7d32; stroke-width: 1.5; }
      .cold { fill: #dfe9ff; stroke: #2c5ea9; stroke-width: 1.5; }
      .hot { fill: #fff1d6; stroke: #c0392b; stroke-width: 1.5; }
      .title { font-size: 16px; font-weight: 700; fill: #1a1a1a; }
      .head { font-size: 13px; font-weight: 700; fill: #1a1a1a; }
      .step { font-size: 12px; font-family: 'Menlo', monospace; fill: #222; }
      .small { font-size: 10px; font-family: 'Menlo', monospace; fill: #333; }
      .caption { font-size: 11px; fill: #555; font-style: italic; }
      .edge { stroke: #1a1a1a; stroke-width: 1.5; fill: none; }
    </style>
  </defs>

  <text x="490" y="26" text-anchor="middle" class="title">MCP 2026-07-28：原语与无状态请求</text>

  <rect x="40" y="55" width="440" height="210" class="cool"/>
  <text x="260" y="78" text-anchor="middle" class="head">服务器原语（Server primitives）</text>
  <rect x="60" y="96" width="400" height="45" class="box"/>
  <text x="80" y="116" class="step">工具（Tools）</text>
  <text x="80" y="133" class="small">tools/list, tools/call</text>
  <rect x="60" y="151" width="400" height="45" class="box"/>
  <text x="80" y="171" class="step">资源（Resources）</text>
  <text x="80" y="188" class="small">resources/list, resources/read</text>
  <rect x="60" y="206" width="400" height="45" class="box"/>
  <text x="80" y="226" class="step">提示词（Prompts）</text>
  <text x="80" y="243" class="small">prompts/list, prompts/get</text>

  <rect x="500" y="55" width="440" height="210" class="cold"/>
  <text x="720" y="78" text-anchor="middle" class="head">每次请求携带的元数据（Metadata）</text>
  <text x="520" y="112" class="step">params._meta</text>
  <text x="520" y="138" class="small">io.modelcontextprotocol/protocolVersion</text>
  <text x="520" y="158" class="small">io.modelcontextprotocol/clientCapabilities</text>
  <text x="520" y="178" class="small">io.modelcontextprotocol/clientInfo（推荐，SHOULD）</text>
  <text x="520" y="214" class="step">绝不从以下来源推断</text>
  <text x="520" y="234" class="small">先前调用、进程或连接</text>

  <rect x="40" y="290" width="900" height="235" class="box"/>
  <text x="490" y="314" text-anchor="middle" class="head">一次请求，一次完整决策</text>

  <rect x="60" y="340" width="220" height="140" class="cold"/>
  <text x="170" y="364" text-anchor="middle" class="step">1 / 客户端请求</text>
  <text x="78" y="394" class="small">JSON-RPC id + method</text>
  <text x="78" y="414" class="small">参数 + 当前 _meta</text>
  <text x="78" y="446" class="small">server/discover 对客户端可选，</text>
  <text x="78" y="464" class="small">服务器则必须实现</text>

  <path d="M280,410 L365,410" class="edge" marker-end="url(#arrow)"/>

  <rect x="370" y="340" width="240" height="140" class="hot"/>
  <text x="490" y="364" text-anchor="middle" class="step">2 / 服务器校验</text>
  <text x="388" y="394" class="small">版本 + 能力</text>
  <text x="388" y="414" class="small">方法专属参数</text>
  <text x="388" y="446" class="small">不支持的版本：-32022</text>
  <text x="388" y="464" class="small">不查询连接状态</text>

  <path d="M610,410 L695,410" class="edge" marker-end="url(#arrow)"/>

  <rect x="700" y="340" width="220" height="140" class="cool"/>
  <text x="810" y="364" text-anchor="middle" class="step">3 / 服务器结果</text>
  <text x="718" y="394" class="small">resultType: complete</text>
  <text x="718" y="414" class="small">结果 _meta 中的 serverInfo</text>
  <text x="718" y="446" class="small">列表：ttlMs + cacheScope</text>
  <text x="718" y="464" class="small">确定性的条目顺序</text>

  <text x="490" y="510" text-anchor="middle" class="caption">下一请求重复完整契约。传输生命周期不是协议会话状态。</text>
</svg>
